<svg xmlns="http://www.w3.org/2000/svg" aria-hidden="true" role="img" width="31.88" height="32" preserveAspectRatio="xMidYMid meet" viewBox="0 0 256 256"><defs><linearGradient id="g1" x1="0%" y1="0%" x2="100%" y2="100%"><stop offset="0%" stop-color="#FF7AC7"/><stop offset="100%" stop-color="#9B34FE"/></linearGradient><linearGradient id="g2" x1="0%" y1="0%" x2="0%" y2="100%"><stop offset="0%" stop-color="#FFFFFF" stop-opacity="0.95"/><stop offset="100%" stop-color="#FFFFFF" stop-opacity="0.75"/></linearGradient></defs><circle cx="128" cy="128" r="120" fill="url(#g1)"/><path fill="#FFFFFF" fill-opacity="0.92" d="M128 70c-22 0-40 18-40 40 0 11 4 20 11 28-14 7-26 20-31 35-1 3 1 7 5 7h110c4 0 6-4 5-7-5-15-17-28-31-35 7-8 11-17 11-28 0-22-18-40-40-40z"/><path fill="url(#g2)" d="M160 110c0 18-14 32-32 32s-32-14-32-32 14-32 32-32 32 14 32 32z"/><path fill="#FFFFFF" fill-opacity="0.9" d="M88 168c-7 10-12 23-12 36 0 3 3 6 6 6h92c3 0 6-3 6-6 0-13-5-26-12-36-13 9-28 14-40 14s-27-5-40-14z"/></svg>